<?xml version="1.0" encoding="UTF-8" standalone="no"?>
<!-- Created with Inkscape (http://www.inkscape.org/) -->

<svg
   width="210mm"
   height="101.47405mm"
   viewBox="0 0 210 101.47405"
   version="1.1"
   id="svg37"
   xml:space="preserve"
   xmlns:inkscape="http://www.inkscape.org/namespaces/inkscape"
   xmlns:sodipodi="http://sodipodi.sourceforge.net/DTD/sodipodi-0.dtd"
   xmlns:xlink="http://www.w3.org/1999/xlink"
   xmlns="http://www.w3.org/2000/svg"
   xmlns:svg="http://www.w3.org/2000/svg"><sodipodi:namedview
     id="namedview39"
     pagecolor="#ffffff"
     bordercolor="#000000"
     borderopacity="0.25"
     inkscape:showpageshadow="2"
     inkscape:pageopacity="0.0"
     inkscape:pagecheckerboard="0"
     inkscape:deskcolor="#d1d1d1"
     inkscape:document-units="mm"
     showgrid="false" /><defs
     id="defs34"><pattern
       inkscape:collect="always"
       xlink:href="#pattern3040"
       id="pattern3213"
       patternTransform="matrix(0.13837764,0,0,0.13837764,271.89288,177.06186)" /><pattern
       patternUnits="userSpaceOnUse"
       width="104.09963"
       height="57.569698"
       patternTransform="translate(-393.51885,532.82481)"
       id="pattern3040"><g
         id="g3038"
         transform="matrix(3.7795276,0,0,3.7795276,393.51885,-532.82481)"><g
           style="fill:none;stroke:#0000ff"
           id="g2967"
           transform="matrix(0.29436005,0.23820293,-0.26576552,0.32842061,-100.78373,145.52541)"><path
             id="Vector"
             d="m 16.0001,13.3848 c 0,1.224 -0.4741,2.398 -1.318,3.2635 C 14.203,17.1397 13.6269,17.5091 13,17.7364 m 6,-4.0441 C 19,7.11538 12,2 12,2 12,2 5,7.11538 5,13.6923 c 0,1.9381 0.7375,3.797 2.05025,5.1675 1.31276,1.3704 3.09335,2.1396 4.94985,2.1396 1.8565,0 3.6369,-0.7696 4.9496,-2.14 C 18.2625,17.4889 19,15.6304 19,13.6923 Z"
             stroke="#000000"
             stroke-width="2"
             stroke-linecap="round"
             stroke-linejoin="round"
             style="fill:none;stroke:#0000ff" /></g><g
           style="fill:none;stroke:#0000ff"
           id="g3020"
           transform="matrix(0.29436005,0.23820293,-0.26576552,0.32842061,-87.012216,145.44075)"><path
             id="path3018"
             d="m 16.0001,13.3848 c 0,1.224 -0.4741,2.398 -1.318,3.2635 C 14.203,17.1397 13.6269,17.5091 13,17.7364 m 6,-4.0441 C 19,7.11538 12,2 12,2 12,2 5,7.11538 5,13.6923 c 0,1.9381 0.7375,3.797 2.05025,5.1675 1.31276,1.3704 3.09335,2.1396 4.94985,2.1396 1.8565,0 3.6369,-0.7696 4.9496,-2.14 C 18.2625,17.4889 19,15.6304 19,13.6923 Z"
             stroke="#000000"
             stroke-width="2"
             stroke-linecap="round"
             stroke-linejoin="round"
             style="fill:none;stroke:#0000ff" /></g><g
           style="fill:none;stroke:#0000ff"
           id="g3024"
           transform="matrix(-0.29436005,0.23820293,0.26576552,0.32842061,-93.681813,137.86709)"><path
             id="path3022"
             d="m 16.0001,13.3848 c 0,1.224 -0.4741,2.398 -1.318,3.2635 C 14.203,17.1397 13.6269,17.5091 13,17.7364 m 6,-4.0441 C 19,7.11538 12,2 12,2 12,2 5,7.11538 5,13.6923 c 0,1.9381 0.7375,3.797 2.05025,5.1675 1.31276,1.3704 3.09335,2.1396 4.94985,2.1396 1.8565,0 3.6369,-0.7696 4.9496,-2.14 C 18.2625,17.4889 19,15.6304 19,13.6923 Z"
             stroke="#000000"
             stroke-width="2"
             stroke-linecap="round"
             stroke-linejoin="round"
             style="fill:none;stroke:#0000ff" /></g><g
           style="fill:none;stroke:#0000ff"
           id="g3028"
           transform="matrix(-0.29436005,0.23820293,0.26576552,0.32842061,-79.9103,137.86709)"><path
             id="path3026"
             d="m 16.0001,13.3848 c 0,1.224 -0.4741,2.398 -1.318,3.2635 C 14.203,17.1397 13.6269,17.5091 13,17.7364 m 6,-4.0441 C 19,7.11538 12,2 12,2 12,2 5,7.11538 5,13.6923 c 0,1.9381 0.7375,3.797 2.05025,5.1675 1.31276,1.3704 3.09335,2.1396 4.94985,2.1396 1.8565,0 3.6369,-0.7696 4.9496,-2.14 C 18.2625,17.4889 19,15.6304 19,13.6923 Z"
             stroke="#000000"
             stroke-width="2"
             stroke-linecap="round"
             stroke-linejoin="round"
             style="fill:none;stroke:#0000ff" /></g></g></pattern></defs><g
     inkscape:label="Livello 1"
     inkscape:groupmode="layer"
     id="layer1"
     transform="translate(0,-126.32483)"><rect
       style="opacity:0.313218;fill:#0000ff;stroke:none;stroke-width:1;stroke-linecap:round;stroke-miterlimit:3.8"
       id="rect3105"
       width="210"
       height="101.47405"
       x="0"
       y="126.32484" /><rect
       style="opacity:0.313218;fill:url(#pattern3213);fill-opacity:1;stroke:none;stroke-width:1;stroke-linecap:round;stroke-miterlimit:3.8"
       id="rect3211"
       width="210"
       height="101.47405"
       x="0"
       y="126.32484" /></g></svg>
